<svg xmlns="http://www.w3.org/2000/svg" width="307" height="307.808" viewBox="0 0 307 307.808">
  <g id="_1svg" data-name="1svg" transform="translate(-199 -55)">
    <g id="Layer_2" transform="translate(199 55)">
      <circle id="Ellipse_3" data-name="Ellipse 3" cx="153.5" cy="153.5" r="153.5" fill="#f2a0cf"/>
    </g>
    <g id="Layer_1" transform="translate(251.001 64.847)">
      <g id="Group_1" data-name="Group 1" transform="translate(0)">
        <path id="Path_1" data-name="Path 1" d="M331.623,319.12c-7.707-4.981-19.643-17.623-12.265-42.811,0,0-16.213-27.162-6.72-52.163,9.446-24.907,17.388-30.593,16.965-61.937-.423-31.439,24.014-105.595,85.716-81.534,0,0,7.1-2.82,13.064-1.739,5.921,1.034,12.359,8.506,12.359,8.506s15.179-.376,21.57,18.8c0,0,6.391,2.35,6.25,10.527,0,0,11.7,26.786,27.4,45.208,15.649,18.374,31.909,46.007,15.414,76.881s-25.893,41.683-16.025,62.736a1.4,1.4,0,0,1-.47,2.115c-.893.423-11.137-2.632-18.8-12.265-27.491,29.841-83.649,56.533-113.207,49.3-16.73-4.088-26.081-12.923-31.251-21.617Z" transform="translate(-309.656 -75.953)" fill="#050103" fill-rule="evenodd"/>
        <path id="Path_2" data-name="Path 2" d="M513.821,578.948V562.265A33.433,33.433,0,0,0,480.456,528.9H350.565A33.433,33.433,0,0,0,317.2,562.265v16.683a155.374,155.374,0,0,0,196.621,0Z" transform="translate(-313.655 -316.044)" fill="#fbbeac" fill-rule="evenodd"/>
        <path id="Path_3" data-name="Path 3" d="M496.027,362h0a27.016,27.016,0,0,1,26.927,26.927v51.552a27.016,27.016,0,0,1-26.927,26.927h0A27.016,27.016,0,0,1,469.1,440.479V388.927A27.016,27.016,0,0,1,496.027,362Z" transform="translate(-394.172 -227.576)" fill="#fbbeac" fill-rule="evenodd"/>
        <path id="Path_4" data-name="Path 4" d="M496.08,362h0a27.016,27.016,0,0,1,26.927,26.927V431.55a48.74,48.74,0,0,1-19.69,4.135c-12.641,0-24.437-6.2-34.117-15.6v-31.2A26.935,26.935,0,0,1,496.08,362Z" transform="translate(-394.225 -227.576)" fill="#ed8e86" fill-rule="evenodd"/>
        <path id="Path_5" data-name="Path 5" d="M629.3,311.5a12.022,12.022,0,0,1,1.269.235h0A17.137,17.137,0,1,1,609.8,328.649a17.335,17.335,0,0,1,6.438-13.628c-.47,5.075.282,11.325,6.72,12.03l-.141-9.869c0-3.994,3.712-5.78,6.485-5.686Z" transform="translate(-468.751 -200.804)" fill="#ed8e86" fill-rule="evenodd"/>
        <path id="Path_6" data-name="Path 6" d="M385.085,309.892c-.423.047-.846.141-1.269.188h0a17.157,17.157,0,1,0,14.286,3.572c.423,5.075-.423,11.325-6.908,11.936l.235-9.916c.094-4.041-3.618-5.921-6.344-5.78Z" transform="translate(-341.689 -199.952)" fill="#ed8e86" fill-rule="evenodd"/>
        <path id="Path_7" data-name="Path 7" d="M460.248,301.634c-31.956,0-58.648-39.428-58.648-70.631V189.648A58.784,58.784,0,0,1,460.248,131h0A58.784,58.784,0,0,1,518.9,189.648v40.508c0,34.164-23.262,71.477-58.648,71.477Z" transform="translate(-358.392 -105.131)" fill="#fbbeac" fill-rule="evenodd"/>
        <path id="Path_8" data-name="Path 8" d="M585.146,365.1a11.139,11.139,0,1,0,11.325,10.949A11.043,11.043,0,0,0,585.146,365.1Z" transform="translate(-449.878 -229.216)" fill="#ed8e86" fill-rule="evenodd"/>
        <path id="Path_9" data-name="Path 9" d="M441.946,367.8a11.163,11.163,0,1,0,11.372,10.949A11.142,11.142,0,0,0,441.946,367.8Z" transform="translate(-373.973 -230.647)" fill="#ed8e86" fill-rule="evenodd"/>
        <path id="Path_10" data-name="Path 10" d="M466.31,278.951a2.465,2.465,0,0,1,1.269,3.243,2.49,2.49,0,0,1-3.243,1.222c-.047,0-7.472-3.478-14.521.987a2.491,2.491,0,0,1-2.632-4.229c9.352-5.827,19.126-1.222,19.126-1.222Z" transform="translate(-381.936 -182.639)" fill="#483d5b"/>
        <path id="Path_11" data-name="Path 11" d="M589.547,280.394a2.5,2.5,0,0,1,.94,3.384,2.532,2.532,0,0,1-3.384.893s-7.1-4.088-14.521-.235A2.494,2.494,0,0,1,569.2,283.4a2.418,2.418,0,0,1,1.081-3.29c9.775-5.122,19.173.282,19.267.282Z" transform="translate(-447.089 -183.001)" fill="#483d5b"/>
        <path id="Path_12" data-name="Path 12" d="M522.971,354.043c1.128,3.149,3.008,8.741,2.867,9.634-.235,1.222-6.72,1.551-8.412-.282-1.128-1.269.235-5.968,1.5-9.023,1.692-4.229,2.632-4.464,4.042-.329Z" transform="translate(-419.565 -221.781)" fill="#fbddd3" fill-rule="evenodd"/>
        <path id="Path_13" data-name="Path 13" d="M578.355,337.925a7.02,7.02,0,0,0,7-7,5.073,5.073,0,0,0-.188-1.5l.8-.282a6.832,6.832,0,0,0,2.491-1.551.838.838,0,0,0,.047-1.222.9.9,0,0,0-1.269-.047,5.934,5.934,0,0,1-2.4,1.363v-.047A4.915,4.915,0,0,0,587,325.424a.925.925,0,0,0-.376-1.222.938.938,0,0,0-1.222.376,3.535,3.535,0,0,1-1.786,1.739l-.047-.047a3.413,3.413,0,0,0,1.269-1.927.913.913,0,0,0-.611-1.081.96.96,0,0,0-1.081.611,2.27,2.27,0,0,1-.893,1.269,7.13,7.13,0,0,0-3.853-1.128,6.955,6.955,0,1,0-.047,13.91Z" transform="translate(-448.397 -207.025)" fill="#483d5b" fill-rule="evenodd"/>
        <path id="Path_14" data-name="Path 14" d="M454.932,337.925a7.02,7.02,0,0,1-7-7,5.074,5.074,0,0,1,.188-1.5l-.846-.282a6.167,6.167,0,0,1-2.4-1.551.838.838,0,0,1-.047-1.222.9.9,0,0,1,1.269-.047,5.383,5.383,0,0,0,2.4,1.363v-.047a4.915,4.915,0,0,1-2.162-2.209.925.925,0,0,1,.376-1.222.805.805,0,0,1,1.128.376,3.878,3.878,0,0,0,1.88,1.739l.047-.047a3.412,3.412,0,0,1-1.269-1.927.873.873,0,0,1,.611-1.081.96.96,0,0,1,1.081.611,2.07,2.07,0,0,0,.893,1.269,6.979,6.979,0,1,1,3.854,12.782Z" transform="translate(-381.178 -207.025)" fill="#483d5b" fill-rule="evenodd"/>
        <path id="Path_15" data-name="Path 15" d="M524.819,410.2a12.359,12.359,0,1,1-24.719,0,2.306,2.306,0,0,1,2.3-2.3h20.113a2.306,2.306,0,0,1,2.3,2.3Z" transform="translate(-410.604 -251.906)" fill="#483d5b" fill-rule="evenodd"/>
        <path id="Path_16" data-name="Path 16" d="M507.7,407.9h17.576v2.115a1.946,1.946,0,0,1-1.927,1.974H509.627a1.946,1.946,0,0,1-1.927-1.974Z" transform="translate(-414.632 -251.906)" fill="#fff" fill-rule="evenodd"/>
        <path id="Path_17" data-name="Path 17" d="M525.258,426.453a12.266,12.266,0,0,1-8.929,3.854,12.427,12.427,0,0,1-8.929-3.854,12.266,12.266,0,0,1,8.929-3.853,12.427,12.427,0,0,1,8.929,3.853Z" transform="translate(-414.473 -259.698)" fill="#fa6676" fill-rule="evenodd"/>
        <path id="Path_18" data-name="Path 18" d="M521.413,529c0,.235.047.423.047.658,0,7.848-4.558,14.756-11.983,19.643-6.673,4.417-15.837,7.143-25.846,7.143s-19.126-2.773-25.846-7.143c-7.425-4.887-11.983-11.8-11.983-19.643a3.1,3.1,0,0,1,.047-.658H456.7v.658c0,3.994,2.632,7.707,7,10.527,4.981,3.29,12.03,5.357,19.925,5.357s14.944-2.068,19.925-5.357c4.323-2.82,7-6.579,7-10.527V529Z" transform="translate(-381.821 -316.097)" fill="#483d5b"/>
        <path id="Path_19" data-name="Path 19" d="M452.244,564.744,485.233,549.8s3.806,27.115,28.9,42.623l3.853,18.046a155.632,155.632,0,0,1-131.488,0l3.853-18.046c25.095-15.555,28.9-42.623,28.9-42.623Z" transform="translate(-350.388 -327.122)" fill="#483d5b" fill-rule="evenodd"/>
        <path id="Path_20" data-name="Path 20" d="M520.079,182.346,514.251,197.1s-7.989-2.209-7.989,8.788c0,0-8.412-5.639-5.357-19.126,0,0-21.006-25.47-16.542-43.845,0,0,1.363-4.464-1.645-4.981-3.055-.564-28.478,77.727-80.782,36.7,0,0,1.551,22.933-12.923,26.786,0,0-3.008-8.976-8.271-4.934,0,0-9.07-49.3,3.994-69.362,13.064-20.113,28.76-40.179,56.721-37.5,27.773,2.585,81.017,27.021,78.62,92.718Z" transform="translate(-345.712 -83.073)" fill-rule="evenodd"/>
      </g>
    </g>
  </g>
</svg>
