<svg xmlns="http://www.w3.org/2000/svg" width="160" height="160" viewBox="0 0 160 160">
  <g id="_3svg" data-name="3svg" transform="translate(-199 -55)">
    <g id="Layer_2_1_" transform="translate(199 55)">
      <circle id="Ellipse_5" data-name="Ellipse 5" cx="80" cy="80" r="80" fill="#f2a0cf"/>
    </g>
    <path id="Path_32" data-name="Path 32" d="M459,551.1h32.623v13.5H459Z" transform="translate(-196.417 -374.779)" fill="#5a5a5a"/>
    <path id="Path_33" data-name="Path 33" d="M397.934,258.759H293.291a6,6,0,0,1-5.991-5.991V167.591a6,6,0,0,1,5.991-5.991H397.934a6,6,0,0,1,5.991,5.991v85.176A6,6,0,0,1,397.934,258.759Z" transform="translate(-66.706 -80.531)" fill="#ffd86e"/>
    <path id="Path_34" data-name="Path 34" d="M723.1,167.591v85.176a6,6,0,0,1-5.991,5.991H709.8a6,6,0,0,0,5.991-5.991V167.591A6,6,0,0,0,709.8,161.6h7.312A6,6,0,0,1,723.1,167.591Z" transform="translate(-385.885 -80.531)" fill="#ffb509"/>
    <path id="Path_35" data-name="Path 35" d="M403.925,499.9H287.3v8.437a6,6,0,0,0,5.991,5.991H397.934a6,6,0,0,0,5.991-5.991Z" transform="translate(-66.706 -336.1)" fill="#838383"/>
    <path id="Path_36" data-name="Path 36" d="M723.1,499.9v8.437a6,6,0,0,1-5.991,5.991H709.8a6,6,0,0,0,5.991-5.991V499.9Z" transform="translate(-385.885 -336.1)" fill="#5a5a5a"/>
    <path id="Path_37" data-name="Path 37" d="M404.425,182.02H287.8V167.591a6,6,0,0,1,5.991-5.991H398.458a6,6,0,0,1,5.991,5.991V182.02Z" transform="translate(-67.084 -80.531)" fill="#acacac"/>
    <path id="Path_38" data-name="Path 38" d="M723.15,167.591V182.02h-7.459V167.591A6,6,0,0,0,709.7,161.6h7.459A5.985,5.985,0,0,1,723.15,167.591Z" transform="translate(-385.809 -80.531)" fill="#9c9c9c"/>
    <path id="Path_39" data-name="Path 39" d="M465.95,608.66H412.174A1.174,1.174,0,0,1,411,607.486v-3.815A4.67,4.67,0,0,1,415.671,599h46.782a4.67,4.67,0,0,1,4.671,4.671v3.815A1.174,1.174,0,0,1,465.95,608.66Z" transform="translate(-160.156 -410.966)" fill="#838383"/>
    <path id="Path_40" data-name="Path 40" d="M609.678,603.771v3.815a1.174,1.174,0,0,1-1.174,1.174h-4.133v-4.989A4.67,4.67,0,0,0,599.7,599.1h5.307A4.67,4.67,0,0,1,609.678,603.771Z" transform="translate(-302.709 -411.041)" fill="#5a5a5a"/>
    <g id="Group_2" data-name="Group 2" transform="translate(226.701 109.125)">
      <path id="Path_41" data-name="Path 41" d="M319.5,290.834a1.7,1.7,0,0,1-1.2-.489l-5.527-5.527a1.727,1.727,0,0,1,0-2.421l5.527-5.527a1.712,1.712,0,0,1,2.421,2.421l-4.329,4.328,4.3,4.3a1.727,1.727,0,0,1,0,2.421A1.7,1.7,0,0,1,319.5,290.834Z" transform="translate(-312.275 -276.363)" fill="#838383"/>
      <path id="Path_42" data-name="Path 42" d="M390.569,290.909a1.7,1.7,0,0,1-1.2-.489,1.727,1.727,0,0,1,0-2.421l4.3-4.3-4.3-4.3a1.712,1.712,0,0,1,2.421-2.421l5.527,5.527a1.727,1.727,0,0,1,0,2.421l-5.527,5.527A2.008,2.008,0,0,1,390.569,290.909Z" transform="translate(-370.143 -276.438)" fill="#838383"/>
      <path id="Path_43" data-name="Path 43" d="M355.355,290.8a1.953,1.953,0,0,1-.636-.122,1.725,1.725,0,0,1-.978-2.225l4.328-11.029a1.719,1.719,0,0,1,3.2,1.247L356.945,289.7A1.708,1.708,0,0,1,355.355,290.8Z" transform="translate(-343.513 -276.325)" fill="#838383"/>
      <path id="Path_44" data-name="Path 44" d="M329.872,367.124H318.012a1.712,1.712,0,1,1,0-3.424h11.861a1.712,1.712,0,1,1,0,3.424Z" transform="translate(-315.316 -342.333)" fill="#838383"/>
      <path id="Path_45" data-name="Path 45" d="M413.772,367.124h-20.86a1.712,1.712,0,1,1,0-3.424h20.86a1.712,1.712,0,1,1,0,3.424Z" transform="translate(-371.899 -342.333)" fill="#838383"/>
      <path id="Path_46" data-name="Path 46" d="M323.074,397.524h-5.062a1.712,1.712,0,1,1,0-3.424h5.062a1.712,1.712,0,1,1,0,3.424Z" transform="translate(-315.316 -365.298)" fill="#838383"/>
      <path id="Path_47" data-name="Path 47" d="M454.893,397.524h-3.081a1.712,1.712,0,0,1,0-3.424h3.081a1.712,1.712,0,1,1,0,3.424Z" transform="translate(-416.395 -365.298)" fill="#838383"/>
      <path id="Path_48" data-name="Path 48" d="M379.025,397.524H363.912a1.712,1.712,0,0,1,0-3.424h15.113a1.712,1.712,0,0,1,0,3.424Z" transform="translate(-349.991 -365.298)" fill="#838383"/>
      <path id="Path_49" data-name="Path 49" d="M492.983,397.524h-5.771a1.712,1.712,0,0,1,0-3.424h5.771a1.712,1.712,0,1,1,0,3.424Z" transform="translate(-443.138 -365.298)" fill="#838383"/>
      <path id="Path_50" data-name="Path 50" d="M446.9,300.924h-6.089a1.712,1.712,0,0,1,0-3.424H446.9a1.712,1.712,0,1,1,0,3.424Z" transform="translate(-408.085 -292.322)" fill="#838383"/>
      <path id="Path_51" data-name="Path 51" d="M530.685,300.924H493.612a1.712,1.712,0,0,1,0-3.424h37.074a1.712,1.712,0,0,1,0,3.424Z" transform="translate(-447.973 -292.322)" fill="#838383"/>
      <path id="Path_52" data-name="Path 52" d="M575.752,332.624h-15.04a1.712,1.712,0,1,1,0-3.424h15.015a1.7,1.7,0,0,1,1.712,1.712A1.681,1.681,0,0,1,575.752,332.624Z" transform="translate(-498.664 -316.269)" fill="#838383"/>
      <path id="Path_53" data-name="Path 53" d="M521.772,332.624h-5.16a1.712,1.712,0,1,1,0-3.424h5.16a1.712,1.712,0,1,1,0,3.424Z" transform="translate(-465.348 -316.269)" fill="#838383"/>
      <path id="Path_54" data-name="Path 54" d="M453.555,332.624H440.912a1.712,1.712,0,0,1,0-3.424h12.643a1.712,1.712,0,1,1,0,3.424Z" transform="translate(-408.161 -316.269)" fill="#838383"/>
      <path id="Path_55" data-name="Path 55" d="M389.172,427.624H377.312a1.712,1.712,0,0,1,0-3.424h11.861a1.712,1.712,0,0,1,0,3.424Z" transform="translate(-360.114 -388.037)" fill="#838383"/>
      <path id="Path_56" data-name="Path 56" d="M327.134,427.624h-9.122a1.712,1.712,0,1,1,0-3.424h9.122a1.712,1.712,0,1,1,0,3.424Z" transform="translate(-315.316 -388.037)" fill="#838383"/>
      <path id="Path_57" data-name="Path 57" d="M465.892,427.624h-15.48a1.712,1.712,0,1,1,0-3.424h15.48a1.712,1.712,0,1,1,0,3.424Z" transform="translate(-415.337 -388.037)" fill="#838383"/>
    </g>
    <path id="Path_58" data-name="Path 58" d="M326.1,192.7a3.4,3.4,0,1,1-3.4-3.4A3.392,3.392,0,0,1,326.1,192.7Z" transform="translate(-90.881 -101.456)" fill="#ff5770"/>
    <path id="Path_59" data-name="Path 59" d="M379.9,192.7a3.4,3.4,0,1,1-3.4-3.4A3.392,3.392,0,0,1,379.9,192.7Z" transform="translate(-131.524 -101.456)" fill="#ffd86e"/>
    <path id="Path_60" data-name="Path 60" d="M433.7,192.7a3.4,3.4,0,1,1-3.4-3.4A3.392,3.392,0,0,1,433.7,192.7Z" transform="translate(-172.167 -101.456)" fill="#80e0dc"/>
    <path id="Path_61" data-name="Path 61" d="M329.347,192.624a3.39,3.39,0,0,1-5.747,2.445,3.409,3.409,0,0,0,3.326-3.4,3.474,3.474,0,0,0-1.052-2.47h.073A3.413,3.413,0,0,1,329.347,192.624Z" transform="translate(-94.129 -101.382)" fill="#ff435f"/>
    <path id="Path_62" data-name="Path 62" d="M383.147,192.624a3.39,3.39,0,0,1-5.747,2.445,3.409,3.409,0,0,0,3.326-3.4,3.474,3.474,0,0,0-1.052-2.47h.073A3.429,3.429,0,0,1,383.147,192.624Z" transform="translate(-134.773 -101.382)" fill="#ffb509"/>
    <path id="Path_63" data-name="Path 63" d="M436.947,192.624a3.39,3.39,0,0,1-5.747,2.445,3.409,3.409,0,0,0,3.326-3.4,3.474,3.474,0,0,0-1.052-2.47h.073A3.429,3.429,0,0,1,436.947,192.624Z" transform="translate(-175.416 -101.382)" fill="#00a8b0"/>
  </g>
</svg>
