<?xml version="1.0"?>
<svg xmlns="http://www.w3.org/2000/svg" id="Flat" height="512px" viewBox="0 0 512 512" width="512px"><g><path d="m392 488h-272a48 48 0 0 1 -48-48v-368a48 48 0 0 1 48-48h224l96 96v320a48 48 0 0 1 -48 48z" fill="#cfd2fc" data-original="#CFD2FC"/><path d="m72 360h368a0 0 0 0 1 0 0v80a48 48 0 0 1 -48 48h-272a48 48 0 0 1 -48-48v-80a0 0 0 0 1 0 0z" fill="#5153ff" data-original="#5153FF"/><g fill="#8690fa"><path d="m440 120h-48a48 48 0 0 1 -48-48v-48z" data-original="#8690FA"/><circle cx="256" cy="200" r="8" data-original="#8690FA"/><circle cx="256" cy="232" r="8" data-original="#8690FA"/><path d="m152 224a8 8 0 0 1 0-16 8.009 8.009 0 0 0 8-8v-32a24.028 24.028 0 0 1 24-24 8 8 0 0 1 0 16 8.009 8.009 0 0 0 -8 8v32a24.028 24.028 0 0 1 -24 24z" data-original="#8690FA"/><path d="m184 288a24.028 24.028 0 0 1 -24-24v-32a8.009 8.009 0 0 0 -8-8 8 8 0 0 1 0-16 24.028 24.028 0 0 1 24 24v32a8.009 8.009 0 0 0 8 8 8 8 0 0 1 0 16z" data-original="#8690FA"/><path d="m328 288a8 8 0 0 1 0-16 8.009 8.009 0 0 0 8-8v-32a24.028 24.028 0 0 1 24-24 8 8 0 0 1 0 16 8.009 8.009 0 0 0 -8 8v32a24.028 24.028 0 0 1 -24 24z" data-original="#8690FA"/><path d="m360 224a24.028 24.028 0 0 1 -24-24v-32a8.009 8.009 0 0 0 -8-8 8 8 0 0 1 0-16 24.028 24.028 0 0 1 24 24v32a8.009 8.009 0 0 0 8 8 8 8 0 0 1 0 16z" data-original="#8690FA"/></g><path d="m256 400h16a8 8 0 0 0 0-16h-16a24 24 0 0 0 0 48 8 8 0 0 1 0 16h-16a8 8 0 0 0 0 16h16a24 24 0 0 0 0-48 8 8 0 0 1 0-16z" fill="#fff" data-original="#FFF" class="active-path" style="fill:#202095" data-old_color="#fff"/><path d="m320 400h16a8 8 0 0 0 0-16h-16a24 24 0 0 0 0 48 8 8 0 0 1 0 16h-16a8 8 0 0 0 0 16h16a24 24 0 0 0 0-48 8 8 0 0 1 0-16z" fill="#fff" data-original="#FFF" class="active-path" style="fill:#202095" data-old_color="#fff"/><path d="m200 400a10.708 10.708 0 0 1 4.59 1.058 8 8 0 0 0 6.82-14.474 26.581 26.581 0 0 0 -11.41-2.584c-17.645 0-32 17.944-32 40s14.355 40 32 40a26.581 26.581 0 0 0 11.41-2.584 8 8 0 1 0 -6.82-14.474 10.708 10.708 0 0 1 -4.59 1.058c-8.673 0-16-10.991-16-24s7.327-24 16-24z" fill="#fff" data-original="#FFF" class="active-path" style="fill:#202095" data-old_color="#fff"/></g> </svg>
