<svg xmlns="http://www.w3.org/2000/svg" width="160" height="160" viewBox="0 0 160 160">
  <g id="_2svg" data-name="2svg" transform="translate(-199 -55)">
    <g id="Layer_2_1_" transform="translate(199 55)">
      <circle id="Ellipse_4" data-name="Ellipse 4" cx="80" cy="80" r="80" fill="#f2a0cf"/>
    </g>
    <g id="surface1" transform="translate(215.154 72.832)">
      <path id="Path_21" data-name="Path 21" d="M365.055,185.012a43.958,43.958,0,0,1-7.963,2.956,6.118,6.118,0,0,0-.635.171,40.016,40.016,0,0,1-17.148.66c-7.744-1.539-13.606-5.692-15.194-11.7-2.1-7.939,3.835-16.733,13.973-22.156a8.6,8.6,0,0,0,3.127-2.858,8.274,8.274,0,0,0,1.368-4.006,9.064,9.064,0,0,0-7.841-9.722c-6.571-.879-16.073-1.319-25.478,1.173-31.585,8.354-50.248,41.576-42.309,73.259A60.842,60.842,0,0,0,386.82,198.5c0-.22,0-.44-.024-.708A15.165,15.165,0,0,0,365.055,185.012Zm-2.565,37.106a8.8,8.8,0,1,1,6.278-10.748A8.812,8.812,0,0,1,362.49,222.118Z" transform="translate(-265.128 -135.302)" fill="#e5e9ea"/>
      <path id="Path_22" data-name="Path 22" d="M532.445,504.973A10.773,10.773,0,1,1,521.673,494.2,10.759,10.759,0,0,1,532.445,504.973Z" transform="translate(-450.863 -404.745)" fill="#42c0e2"/>
      <path id="Path_23" data-name="Path 23" d="M408.545,474.273A10.773,10.773,0,1,1,397.773,463.5,10.759,10.759,0,0,1,408.545,474.273Z" transform="translate(-357.229 -381.545)" fill="#49bd90"/>
      <path id="Path_24" data-name="Path 24" d="M335.245,366.773A10.773,10.773,0,1,1,324.473,356,10.759,10.759,0,0,1,335.245,366.773Z" transform="translate(-301.835 -300.305)" fill="#fa70b2"/>
      <path id="Path_25" data-name="Path 25" d="M372.045,242.473A10.773,10.773,0,1,1,361.273,231.7,10.759,10.759,0,0,1,372.045,242.473Z" transform="translate(-329.645 -206.368)" fill="#ffd061"/>
      <path id="Path_26" data-name="Path 26" d="M668.885,328.4l-1.808,23.231-3.835,49.3a3.346,3.346,0,0,1-1.759,2.516,7.258,7.258,0,0,1-3.908,1c-3.029-.024-5.521-1.588-5.643-3.566l-3.42-49.32L646.9,328.3Z" transform="translate(-553.642 -279.371)" fill="#ffd061"/>
      <path id="Path_27" data-name="Path 27" d="M660.135,404.077c-2-.537-3.42-1.808-3.542-3.3L652.9,328.424l-6.2-.024,1.612,23.231,3.42,49.32c.146,1.979,2.638,3.566,5.643,3.566A8.283,8.283,0,0,0,660.135,404.077Z" transform="translate(-553.49 -279.447)" fill="#ef8930"/>
      <path id="Path_28" data-name="Path 28" d="M666.926,351.629l1.808-23.231-15.829-.073-6.2-.024,1.612,23.255,5.789.024Z" transform="translate(-553.49 -279.371)" fill="#3e4b5c"/>
      <path id="Path_29" data-name="Path 29" d="M621.1,176.929c-10.089-4.544-11.139-19.689-2.125-28.629s12.971-14.241,13-20.3c0,0,32.513,33.3,11.164,49.027Z" transform="translate(-527.889 -128)" fill="#fa70b2"/>
      <path id="Path_30" data-name="Path 30" d="M630.134,176.978,621,176.929c-10.089-4.544-11.139-19.689-2.125-28.629s12.971-14.241,13-20.3C635.142,145.979,617.041,156.654,630.134,176.978Z" transform="translate(-527.813 -128)" fill="#dd215b"/>
      <path id="Path_31" data-name="Path 31" d="M654.177,351.655,653,328.424l-6.2-.024,1.612,23.255Z" transform="translate(-553.566 -279.447)" fill="#243142"/>
    </g>
  </g>
</svg>
