<?xml version="1.0"?>
<svg xmlns="http://www.w3.org/2000/svg" id="Flat" height="512px" viewBox="0 0 512 512" width="512px" class=""><g><path d="m392 488h-272a48 48 0 0 1 -48-48v-368a48 48 0 0 1 48-48h224l96 96v320a48 48 0 0 1 -48 48z" fill="#cfd2fc" data-original="#CFD2FC" class=""/><path d="m72 360h368a0 0 0 0 1 0 0v80a48 48 0 0 1 -48 48h-272a48 48 0 0 1 -48-48v-80a0 0 0 0 1 0 0z" fill="#5153ff" data-original="#5153FF"/><g fill="#8690fa"><path d="m440 120h-48a48 48 0 0 1 -48-48v-48z" data-original="#8690FA" class=""/><circle cx="288" cy="216" r="8" data-original="#8690FA" class=""/><circle cx="224" cy="216" r="8" data-original="#8690FA" class=""/><circle cx="256" cy="216" r="8" data-original="#8690FA" class=""/><path d="m184 272a8.009 8.009 0 0 1 -8-8v-32a23.9 23.9 0 0 0 -6.131-16 23.9 23.9 0 0 0 6.131-16v-32a8.009 8.009 0 0 1 8-8 8 8 0 0 0 0-16 24.028 24.028 0 0 0 -24 24v32a8.009 8.009 0 0 1 -8 8 8 8 0 0 0 0 16 8.009 8.009 0 0 1 8 8v32a24.028 24.028 0 0 0 24 24 8 8 0 0 0 0-16z" data-original="#8690FA" class=""/><path d="m360 208a8.009 8.009 0 0 1 -8-8v-32a24.028 24.028 0 0 0 -24-24 8 8 0 0 0 0 16 8.009 8.009 0 0 1 8 8v32a23.9 23.9 0 0 0 6.131 16 23.9 23.9 0 0 0 -6.131 16v32a8.009 8.009 0 0 1 -8 8 8 8 0 0 0 0 16 24.028 24.028 0 0 0 24-24v-32a8.009 8.009 0 0 1 8-8 8 8 0 0 0 0-16z" data-original="#8690FA" class=""/></g><path d="m240 384a8 8 0 0 0 -8 8v48a8 8 0 0 1 -16 0 8 8 0 0 0 -16 0 24 24 0 0 0 48 0v-48a8 8 0 0 0 -8-8z" fill="#fff" data-original="#FFF" class="active-path" data-old_color="#fff" style="fill:#202095"/><path d="m288 400h16a8 8 0 0 0 0-16h-16a24 24 0 0 0 0 48 8 8 0 0 1 0 16h-16a8 8 0 0 0 0 16h16a24 24 0 0 0 0-48 8 8 0 0 1 0-16z" fill="#fff" data-original="#FFF" class="active-path" data-old_color="#fff" style="fill:#202095"/></g> </svg>
