<svg xmlns="http://www.w3.org/2000/svg" width="512.006" height="512.047" viewBox="0 0 512.006 512.047">
  <g id="quest_1_" data-name="quest (1)" transform="translate(-0.024 0)">
    <path id="Path_70" data-name="Path 70" d="M358.43,264.582C411.157,233.859,466.8,195.016,503.5,145.113a296.4,296.4,0,0,0-100.039,16.523c7.477-2.68,13.289-18.246,16.711-25.105a150.9,150.9,0,0,0,11.039-28.895A91.356,91.356,0,0,0,431,53.2,69.333,69.333,0,0,0,366.32,8.582c-29.867-.59-59.867,0-89.77,0H133.8c-27.957,0-65.246-5.488-90.531,8.8A68.97,68.97,0,0,0,18.953,113.07c18.57,29.613,48.609,32.043,80.062,32.043-9.207,27.52-25.719,51.953-40.277,76.8A363.708,363.708,0,0,0,17.5,317.129C7.476,357.246,1.418,404.793,21,442.93c17.277,33.559,51.328,59.809,89.957,60.586,80.777,1.621,161.785.23,242.578,0a83.131,83.131,0,0,0,74.625-41.031c22.492-42.035-16.242-95.5-61.2-95.5H261.5a198.225,198.225,0,0,1,13.414-36.555,61.3,61.3,0,0,1,21.82-25.738,701.391,701.391,0,0,1,61.7-40.105ZM252.153,341.938c-.621.6-1.2,1.176-1.773,1.758C250.969,343.09,251.532,342.543,252.153,341.938ZM245.329,320.5q-1.3,3.146-2.457,6.16c.766-2.012,1.578-4.051,2.449-6.16Zm3.3-7.758c-.727,1.641-1.426,3.262-2.09,4.848q1-2.391,2.082-4.848ZM356.306,184.25c.527-.324,1.082-.641,1.621-.965C357.388,183.61,356.833,183.926,356.306,184.25ZM325.02,207.2c.547-.469,1.074-.949,1.629-1.41C326.095,206.246,325.567,206.727,325.02,207.2Zm9.457-7.73,2.336-1.8Zm10.5-7.758c.8-.555,1.621-1.1,2.422-1.648C346.6,190.606,345.782,191.2,344.981,191.707ZM293.9,238.852l-.641.754Zm-6.461,8.066c-.492.641-1,1.277-1.484,1.918C286.442,248.2,286.946,247.559,287.438,246.918Zm-6.586,8.867c-.57.754-1.105,1.516-1.613,2.277.527-.773,1.066-1.535,1.613-2.277Zm-6.254,9.094c-.488.734-.949,1.461-1.426,2.2C273.649,266.34,274.11,265.613,274.6,264.879Zm-5.82,9.148-.7,1.168ZM256.13,296.813c-.527,1.059-1.082,2.125-1.586,3.164C255.056,298.93,255.6,297.86,256.13,296.813Zm-3.855,7.918c-.648,1.375-1.3,2.746-1.91,4.1C250.977,307.477,251.626,306.106,252.274,304.731Zm-9.9,23.117c-4.266,11.152-11.887,26.676-11.887,38.965a78.461,78.461,0,0,1,5-6.777c-1.793,2.246-3.508,4.539-5.121,6.945a255.494,255.494,0,0,1,12.008-39.133Zm4.5,19.379c-.539.563-1.1,1.137-1.613,1.707.531-.57,1.094-1.145,1.641-1.707Zm-5.434,5.813c-.453.5-.855.953-1.266,1.434Zm-3.312,3.8c-.477.555-.93,1.1-1.355,1.621.484-.527.9-1.059,1.383-1.621Zm19.363,69.121a88.68,88.68,0,0,0,26.98,49.781,87.783,87.783,0,0,1-26.957-49.8Zm-1-7.3c.121,1.227.23,2.449.395,3.652-.129-1.223-.258-2.426-.367-3.672Zm40.723,67.047c-1.93-1.258-3.781-2.562-5.609-4,1.852,1.375,3.68,2.715,5.633,3.977Zm18.68,9.625a105.6,105.6,0,0,1-17.82-9.1,105.433,105.433,0,0,0,17.844,9.078ZM346.5,502.84c1,.113,2,.25,2.992.324-.98-.094-1.969-.23-3.012-.34Zm-61.348-26.453q2.561,2.373,5.367,4.531-2.736-2.215-5.344-4.566Zm34.336,20.379c1.383.5,2.793.93,4.2,1.371-1.383-.469-2.8-.91-4.172-1.406Zm8.621,2.7c1.3.352,2.609.676,3.926.98-1.289-.34-2.621-.664-3.9-1.016Zm8.949,2.031c1.2.23,2.406.453,3.621.648-1.187-.223-2.391-.453-3.586-.684Zm23.586-134.211c.977-.094,1.957-.105,2.938-.145C362.6,367.176,361.622,367.188,360.645,367.281ZM320.028,385.7c-.316.309-.664.578-.98.895C319.4,386.274,319.747,386,320.028,385.7Zm37.488-18c-.957.133-1.93.227-2.875.4.98-.172,1.953-.254,2.934-.4Zm-5.973,1.109c-.855.2-1.777.363-2.648.605.863-.242,1.758-.4,2.637-.605Zm-5.812,1.609c-.855.273-1.641.5-2.434.8.785-.3,1.613-.523,2.426-.812Zm-5.5,2.066c-.77.332-1.562.625-2.32.98.75-.355,1.543-.648,2.313-.98Zm-5.2,2.484c-.754.4-1.527.766-2.254,1.184.715-.418,1.492-.785,2.246-1.184Zm-5.02,2.941c-.7.453-1.426.855-2.1,1.352.641-.48,1.391-.9,2.09-1.352Zm-4.836,3.414c-.617.48-1.246.914-1.836,1.41.578-.48,1.211-.914,1.8-1.391Zm-24.406,37.41c.223-.852.4-1.781.656-2.652-.266.887-.445,1.781-.664,2.672Zm1.707-5.691c.289-.852.535-1.707.852-2.559-.375.879-.6,1.73-.887,2.586Zm2.176-5.52c.34-.777.648-1.57,1.023-2.332a20.993,20.993,0,0,0-1.016,2.348Zm2.66-5.344c.387-.691.727-1.4,1.129-2.074-.437.691-.777,1.4-1.16,2.094Zm3.336-5.418c.336-.484.625-.988.977-1.469-.387.5-.676,1-.992,1.484Zm3.969-5.273c.258-.309.5-.621.77-.93-.3.324-.547.641-.8.945Zm-55.184-15.5c.57-2.832,1.2-5.641,1.895-8.422C260.645,370.344,260.02,373.153,259.442,375.985ZM256.481,397.7c.137-1.988.375-3.937.578-5.891C256.884,393.766,256.618,395.715,256.481,397.7Zm1.176-11.18c.352-2.562.785-5.121,1.246-7.613Q258.206,382.684,257.657,386.524Zm.281-50.117c.438-.41.934-.852,1.375-1.254C258.872,335.563,258.376,336,257.938,336.407Zm16.215-14.164c.434-.359.855-.691,1.262-1.051C274.981,321.551,274.587,321.891,274.153,322.242Zm-9.207,7.848c.75-.656,1.512-1.32,2.3-2C266.458,328.77,265.7,329.434,264.946,330.09Zm0,0" fill="#f6db6d"/>
    <path id="Path_71" data-name="Path 71" d="M76.828,8.582a68.266,68.266,0,0,0,0,136.531H366.961a68.266,68.266,0,0,1,0-136.531Zm0,0" fill="#e3e7f2"/>
    <path id="Path_72" data-name="Path 72" d="M261.473,366.98a171.833,171.833,0,0,0-5.445,42.668,93.745,93.745,0,0,0,3.566,25.6h23.793a16.79,16.79,0,0,0,16.6-13.285,68.263,68.263,0,0,1,66.977-54.98Zm0,0" fill="#d8e6e6"/>
    <path id="Path_73" data-name="Path 73" d="M358.43,503.516a99.4,99.4,0,0,1-14.254-.941c-38.227-4.691-73.641-28.328-84.562-67.328h23.8a16.986,16.986,0,0,0,16.641-13.48,68.117,68.117,0,0,1,53.59-53.418,64.9,64.9,0,0,1,12.973-1.367A68.675,68.675,0,0,1,419.27,394.2c43.438,53.676-9.984,109.313-60.84,109.313Zm0,0" fill="#d8e6e6"/>
    <path id="Path_74" data-name="Path 74" d="M344.176,502.574c-38.227-4.691-73.641-28.328-84.562-67.328h23.8a16.986,16.986,0,0,0,16.641-13.48,68.117,68.117,0,0,1,53.59-53.418A72.342,72.342,0,0,1,393.672,394.2c40.191,49.664-2.562,101.035-49.5,108.371Zm0,0" fill="#e3e7f2"/>
    <path id="Path_75" data-name="Path 75" d="M435.227,76.848a149.191,149.191,0,0,1-29.27,83.8,248.877,248.877,0,0,0-35.5,15.445C257.992,235.738,231.535,361.266,230.512,366.813a104.828,104.828,0,0,1,8.621-11.18A318.811,318.811,0,0,1,282.993,315.1a186.3,186.3,0,0,0-26.965,94.551c0,59.734,51.2,93.867,102.4,93.867H110.961c-51.2,0-102.4-51.2-102.4-110.934,0-128,68.52-181.762,90.453-247.469H366.961A68.265,68.265,0,0,1,354.16,9.777a69.7,69.7,0,0,1,12.8-1.2,68.264,68.264,0,0,1,68.266,68.266Zm0,0" fill="#e3e7f2"/>
    <path id="Path_76" data-name="Path 76" d="M409.629,76.848A145.235,145.235,0,0,1,383.6,155.781c-1.109,1.621-2.133,3.242-3.242,4.863-3.586,5.461-6.828,10.668-9.9,15.445-45.141,71.426-37.633,71.426-37.633,71.426S216.859,346.93,257.395,315.1a211.232,211.232,0,0,0-18.262,40.535,170.93,170.93,0,0,0-8.7,54.016c0,59.734,51.2,93.867,102.4,93.867H110.961c-51.2,0-102.4-51.2-102.4-110.934,0-128,68.52-181.762,90.453-247.469H366.961A68.265,68.265,0,0,1,354.16,9.777a68.266,68.266,0,0,1,55.469,67.07Zm0,0" fill="#e3e7f2"/>
    <path id="Path_77" data-name="Path 77" d="M503.5,145.113c-214.957,74.41-269.742,212.906-272.9,221.441,2.047-10.5,48.3-221.441,272.9-221.441Zm0,0" fill="#d8e6e6"/>
    <path id="Path_78" data-name="Path 78" d="M503.5,145.113S460.828,204.847,358.43,264.582c-98.562,57.516-125.953,99.156-127.918,102.23a.309.309,0,0,1,.086-.258c3.156-8.535,57.941-147.031,272.9-221.441Zm0,0" fill="#e3e7f2"/>
    <g id="Group_4" data-name="Group 4">
      <path id="Path_79" data-name="Path 79" d="M94.125,157.914a558.564,558.564,0,0,1-33.879,61.535c-.492.852-1,1.707-1.492,2.516-.852,1.426-1.629,2.859-2.449,4.27a371.4,371.4,0,0,0-32.957,71.09c-1.055,3.172-2.082,6.367-3.027,9.582-.488,1.707-.937,3.371-1.4,5.078s-.992,3.414-1.426,5.121a248.773,248.773,0,0,0-8.535,82.559A110.042,110.042,0,0,0,18.117,436.7c.906,2.082,1.844,4.156,2.887,6.188.2.4.441.793.656,1.191.332.625.691,1.238,1.031,1.863,1.3,2.363,2.68,4.676,4.148,6.953.316.477.605.973.922,1.461q2.561,3.891,5.5,7.574c.41.523.852,1.035,1.262,1.547q2.508,3.1,5.223,6.023c.418.453.852.922,1.254,1.367q3.158,3.316,6.578,6.363c.555.5,1.129.957,1.707,1.445q2.561,2.215,5.293,4.266c.852.656,1.707,1.313,2.559,1.945,1.707,1.238,3.5,2.406,5.3,3.531,1.945,1.238,3.922,2.375,5.922,3.465.766.418,1.527.855,2.3,1.238,1.906.98,3.824,1.887,5.77,2.738h.07a88.5,88.5,0,0,0,27.246,7.176c1.656.172,3.336.23,5.008.309.734,0,1.461.137,2.2.137,28.473.57,56.984.7,85.5.707q-29.93-.1-59.879-.672c-.734,0-1.461-.113-2.2-.137-1.707-.078-3.352-.137-5.008-.309a88.5,88.5,0,0,1-27.246-7.176h-.07c-1.945-.855-3.863-1.758-5.77-2.738-.773-.395-1.535-.855-2.3-1.238-2-1.094-3.977-2.227-5.922-3.465-1.8-1.125-3.57-2.3-5.3-3.531-.852-.633-1.707-1.289-2.559-1.945q-2.707-2.068-5.293-4.27c-.562-.484-1.133-.945-1.707-1.441q-3.41-3.047-6.578-6.367c-.426-.441-.852-.91-1.254-1.363q-2.713-2.918-5.223-6.023c-.426-.512-.852-1.027-1.262-1.547q-2.895-3.686-5.5-7.578c-.316-.484-.605-.98-.922-1.457-1.469-2.277-2.844-4.59-4.148-6.957-.34-.621-.7-1.234-1.031-1.859-.215-.4-.453-.793-.656-1.2-1.043-2.031-1.98-4.1-2.887-6.184a110.036,110.036,0,0,1-9.18-37.012,248.78,248.78,0,0,1,8.531-82.559c.438-1.707.957-3.414,1.426-5.121s.914-3.414,1.4-5.078c.949-3.215,1.973-6.406,3.031-9.582a371.146,371.146,0,0,1,33.008-71.16c.852-1.434,1.613-2.867,2.449-4.266.492-.852,1-1.707,1.492-2.516a558.882,558.882,0,0,0,33.875-61.535c.113-.266.23-.52.344-.785,1.707-3.961,3.2-7.945,4.547-11.945h-25.6c-25.074,0-49.223-1.6-67.414-17.2a67.894,67.894,0,0,0,45.184,17.133H99.016c-1.348,4.039-2.875,8.023-4.551,11.949-.109.3-.23.555-.34.852Zm0,0" fill="#e3e7f2"/>
      <path id="Path_80" data-name="Path 80" d="M43.266,17.387c-.613.344-1.16.762-1.766,1.129.707-.43,1.391-.855,2.109-1.281a2.275,2.275,0,0,1-.344.152Zm0,0" fill="#fff"/>
      <path id="Path_81" data-name="Path 81" d="M43.609,17.234A78.167,78.167,0,0,1,72.219,8.813a67.755,67.755,0,0,0-28.609,8.422Zm0,0" fill="#fff"/>
      <path id="Path_82" data-name="Path 82" d="M18.953,113.07c.23.359.48.676.711,1.035-.562-.855-1.078-1.758-1.605-2.637.316.527.563,1.074.895,1.6Zm0,0" fill="#fff"/>
      <path id="Path_83" data-name="Path 83" d="M18.059,111.469c-.691-1.187-1.363-2.375-1.98-3.578C16.7,109.106,17.367,110.289,18.059,111.469Zm0,0" fill="#fff"/>
      <path id="Path_84" data-name="Path 84" d="M21.191,116.316c-.512-.727-1.035-1.453-1.527-2.211C20.156,114.855,20.668,115.582,21.191,116.316Zm0,0" fill="#fff"/>
      <path id="Path_85" data-name="Path 85" d="M27.941,124.445c-1.094-1.125-2.145-2.277-3.148-3.473q1.535,1.816,3.148,3.473Zm0,0" fill="#fff"/>
      <path id="Path_86" data-name="Path 86" d="M16.078,107.891c-.391-.766-.758-1.551-1.125-2.344C15.312,106.34,15.687,107.118,16.078,107.891Zm0,0" fill="#fff"/>
      <path id="Path_87" data-name="Path 87" d="M23.691,119.66c-.855-1.086-1.707-2.211-2.5-3.344C22.008,117.465,22.836,118.594,23.691,119.66Zm0,0" fill="#fff"/>
      <path id="Path_88" data-name="Path 88" d="M24.773,120.973c-.367-.434-.742-.852-1.1-1.312Q24.24,120.323,24.773,120.973Zm0,0" fill="#fff"/>
      <path id="Path_89" data-name="Path 89" d="M32.172,25.281c1.23-1.074,2.563-2.074,3.848-3.062C34.707,23.2,33.418,24.215,32.172,25.281Zm0,0" fill="#fff"/>
      <path id="Path_90" data-name="Path 90" d="M31.285,26.09l.855-.852Zm0,0" fill="#fff"/>
      <path id="Path_91" data-name="Path 91" d="M14.953,105.547c-.668-1.434-1.289-2.887-1.844-4.352Q13.953,103.41,14.953,105.547Zm0,0" fill="#fff"/>
      <path id="Path_92" data-name="Path 92" d="M13.109,101.195c-.2-.5-.375-1.016-.555-1.527C12.734,100.179,12.922,100.679,13.109,101.195Zm0,0" fill="#fff"/>
      <path id="Path_93" data-name="Path 93" d="M29.355,125.848c-.477-.453-.945-.93-1.414-1.4C28.41,124.918,28.879,125.387,29.355,125.848Zm0,0" fill="#fff"/>
      <path id="Path_94" data-name="Path 94" d="M12.555,99.668c-.684-1.937-1.3-3.9-1.785-5.871Q11.531,96.791,12.555,99.668Zm0,0" fill="#fff"/>
      <path id="Path_95" data-name="Path 95" d="M31.6,127.918c-.77-.68-1.547-1.355-2.277-2.07Q30.484,126.92,31.6,127.918Zm0,0" fill="#fff"/>
      <path id="Path_96" data-name="Path 96" d="M99.434,8.582c3.113-.344,6.262-.555,9.445-.711a236.323,236.323,0,0,0-36.691.941c1.559-.1,3.086-.23,4.641-.23Zm0,0" fill="#fff"/>
      <path id="Path_97" data-name="Path 97" d="M31.285,26.09A67.624,67.624,0,0,0,10.8,93.77a69.635,69.635,0,0,1,20.48-67.68Zm0,0" fill="#fff"/>
      <path id="Path_98" data-name="Path 98" d="M37.863,20.836c1.172-.855,2.406-1.57,3.637-2.32C40.27,19.266,39.043,20.016,37.863,20.836Zm0,0" fill="#fff"/>
      <path id="Path_99" data-name="Path 99" d="M36.02,22.234c.617-.461,1.215-.937,1.844-1.383C37.234,21.277,36.637,21.75,36.02,22.234Zm0,0" fill="#fff"/>
    </g>
    <path id="Path_100" data-name="Path 100" d="M366.961,153.648H76.828a76.8,76.8,0,0,1,0-153.6H366.961a8.533,8.533,0,1,1,0,17.066,59.734,59.734,0,1,0,0,119.469,8.533,8.533,0,1,1,0,17.066ZM76.828,17.113a59.734,59.734,0,0,0,0,119.469h241.91a76.718,76.718,0,0,1,0-119.469Zm0,0" fill="#c4d5d6"/>
    <path id="Path_101" data-name="Path 101" d="M136.563,51.246h-25.6a8.533,8.533,0,0,1,0-17.066h25.6a8.533,8.533,0,0,1,0,17.066Zm0,0" fill="#c4d5d6"/>
    <path id="Path_102" data-name="Path 102" d="M43.777,76.848a8.422,8.422,0,0,1-2.141-.273A8.535,8.535,0,0,1,35.508,66.18a42.676,42.676,0,0,1,41.32-32,8.533,8.533,0,0,1,0,17.066,25.6,25.6,0,0,0-24.746,19.2,8.534,8.534,0,0,1-8.3,6.4Zm0,0" fill="#c4d5d6"/>
    <path id="Path_103" data-name="Path 103" d="M283.387,443.781h-23.8a8.532,8.532,0,0,1-8.207-6.223,102.95,102.95,0,0,1-3.883-27.91,179.234,179.234,0,0,1,5.707-44.773,8.533,8.533,0,0,1,8.27-6.426H366.961a8.533,8.533,0,1,1,0,17.066,59.832,59.832,0,0,0-58.605,48.094,25.338,25.338,0,0,1-24.969,20.172Zm-17.066-17.066h17.066a8.228,8.228,0,0,0,8.227-6.41,76.569,76.569,0,0,1,27.125-44.789H268.231a160.7,160.7,0,0,0-3.668,34.133,83.237,83.237,0,0,0,1.707,17.066Zm0,0" fill="#c4d5d6"/>
    <path id="Path_104" data-name="Path 104" d="M196.293,384.047a8.532,8.532,0,0,1-4.727-1.434l-16.59-11.094a7.688,7.688,0,0,0-8.531,0l-7.594,5.055a24.755,24.755,0,0,1-27.488,0l-7.578-5.055a7.688,7.688,0,0,0-8.531,0l-7.594,5.055a24.755,24.755,0,0,1-27.488,0l-7.609-5.02a7.68,7.68,0,0,0-8.535,0l-16.6,11.094a8.534,8.534,0,0,1-9.473-14.2l16.6-11.094a24.755,24.755,0,0,1,27.488,0l7.578,5.051a7.673,7.673,0,0,0,8.531,0l7.594-5.051a24.755,24.755,0,0,1,27.488,0l7.578,5.051a7.673,7.673,0,0,0,8.531,0l7.594-5.051a24.755,24.755,0,0,1,27.488,0l16.586,11.094a8.531,8.531,0,0,1-4.719,15.6Zm0,0" fill="#c4d5d6"/>
    <path id="Path_105" data-name="Path 105" d="M213.359,315.781a8.532,8.532,0,0,1-4.727-1.434l-16.59-11.094a7.673,7.673,0,0,0-8.531,0l-7.594,5.051a24.74,24.74,0,0,1-27.488,0l-7.578-5.051a7.673,7.673,0,0,0-8.531,0l-7.594,5.051a24.74,24.74,0,0,1-27.488,0l-7.578-5.051a7.673,7.673,0,0,0-8.531,0l-16.6,11.094a8.534,8.534,0,1,1-9.473-14.2l16.6-11.094a24.748,24.748,0,0,1,27.484,0l7.578,5.051a7.68,7.68,0,0,0,8.535,0l7.594-5.051a24.748,24.748,0,0,1,27.484,0l7.578,5.051a7.68,7.68,0,0,0,8.535,0l7.594-5.051a24.748,24.748,0,0,1,27.484,0l16.59,11.094a8.533,8.533,0,0,1-4.754,15.633Zm0,0" fill="#c4d5d6"/>
    <path id="Path_106" data-name="Path 106" d="M238.961,256.047a8.513,8.513,0,0,1-4.727-1.434l-16.59-11.094a7.688,7.688,0,0,0-8.531,0l-7.6,5.055a24.748,24.748,0,0,1-27.484,0l-7.578-5.055a7.688,7.688,0,0,0-8.531,0l-7.6,5.055a24.748,24.748,0,0,1-27.484,0l-7.578-5.055a7.688,7.688,0,0,0-8.531,0l-16.6,11.094a8.534,8.534,0,0,1-9.473-14.2l16.6-11.094a24.748,24.748,0,0,1,27.484,0l7.578,5.055a7.688,7.688,0,0,0,8.531,0l7.6-5.055a24.748,24.748,0,0,1,27.484,0l7.578,5.055a7.688,7.688,0,0,0,8.531,0l7.6-5.055a24.748,24.748,0,0,1,27.484,0l16.59,11.094a8.533,8.533,0,0,1-4.754,15.633Zm0,0" fill="#c4d5d6"/>
    <path id="Path_107" data-name="Path 107" d="M230.43,375.516a8.537,8.537,0,0,1-8.383-10.121c.438-2.312,46.711-228.813,281.449-228.813a8.534,8.534,0,0,1,6.945,13.492c-1.793,2.5-44.91,61.918-147.711,121.879-98.555,57.48-124.75,99.039-125.008,99.457a8.528,8.528,0,0,1-7.293,4.105ZM484.91,154.153c-152.926,8.371-213.879,119.594-235.52,178.574a564.418,564.418,0,0,1,104.77-75.52A544.075,544.075,0,0,0,484.91,154.152Zm0,0" fill="#c4d5d6"/>
    <path id="Path_108" data-name="Path 108" d="M230.43,375.516a8.537,8.537,0,0,1-8.051-11.367c2.152-6.086,55.137-149.836,278.324-227.09a8.534,8.534,0,0,1,5.582,16.129C291.4,227.563,238.961,368.422,238.465,369.833a8.539,8.539,0,0,1-8.035,5.684Zm0,0" fill="#c4d5d6"/>
    <path id="Path_109" data-name="Path 109" d="M358.43,512.047c-50.707,0-94.723-30.633-107.051-74.488a8.528,8.528,0,0,1,8.207-10.844h23.809a8.4,8.4,0,0,0,8.27-6.641,75.095,75.095,0,0,1,134.219-31.238c19.055,23.566,23.039,50.105,11.332,74.691a89.529,89.529,0,0,1-78.785,48.52Zm-86.648-68.266a93.863,93.863,0,0,0,86.648,51.2,72.931,72.931,0,0,0,63.383-38.809c6.2-12.961,9.625-33.281-9.2-56.609a59.944,59.944,0,0,0-45.719-24.047h-.25A59.926,59.926,0,0,0,308.4,423.422a25.5,25.5,0,0,1-25,20.359Zm0,0" fill="#c4d5d6"/>
    <path id="Path_110" data-name="Path 110" d="M.027,392.582A311.936,311.936,0,0,1,20.09,280.98a445.3,445.3,0,0,1,35.84-70.953A380.108,380.108,0,0,0,90.984,142.41l16.215,5.41a392.786,392.786,0,0,1-36.566,70.91,429.249,429.249,0,0,0-34.594,68.336A294.612,294.612,0,0,0,17.094,392.582Zm0,0" fill="#e3e7f2"/>
    <path id="Path_111" data-name="Path 111" d="M11.324,350.027a8.367,8.367,0,0,0-9.387,7.609C.422,369.25.523,380.925.027,392.582H17.094c.5-11.094.367-22.187,1.852-33.187a8.786,8.786,0,0,0-7.621-9.367Zm0,0" fill="#c4d5d6"/>
    <path id="Path_112" data-name="Path 112" d="M107.129,147.82l-16.211-5.41a380.367,380.367,0,0,1-35.055,67.617,445.12,445.12,0,0,0-35.8,70.953l-3.121,8.2a8.654,8.654,0,0,0,5.488,10.949,8.456,8.456,0,0,0,10.621-5.316l2.961-7.75A429.408,429.408,0,0,1,70.539,218.73a392.637,392.637,0,0,0,36.59-70.91Zm0,0" fill="#c4d5d6"/>
    <path id="Path_113" data-name="Path 113" d="M7.434,322.984a8.309,8.309,0,0,0,1.129,6.586l1.074,1.281a6.718,6.718,0,0,0,1.375,1.059,5.458,5.458,0,0,0,1.422.793,12.893,12.893,0,0,0,1.648.5,9.01,9.01,0,0,0,6.367-1.266,8.292,8.292,0,0,0,2.227-2.336,8.337,8.337,0,0,0,.4-9.219,9.267,9.267,0,0,0-2.312-2.387,8.749,8.749,0,0,0-2.988-1.453,8.735,8.735,0,0,0-6.477.973,9.407,9.407,0,0,0-3.867,5.473Zm0,0" fill="#c4d5d6"/>
    <path id="Path_114" data-name="Path 114" d="M358.43,512.047H110.961C52.934,512.047.027,455.106.027,392.582a8.533,8.533,0,1,1,17.066,0c0,52.633,45.621,102.4,93.867,102.4H295.852A96.422,96.422,0,0,1,247.5,409.648a182.114,182.114,0,0,1,10.859-61.84,147.163,147.163,0,0,0-20.641,23.609,8.534,8.534,0,0,1-15.668-6.051c.309-1.6,32.309-159.359,178.348-211.789a137.684,137.684,0,0,0,26.3-76.73,59.734,59.734,0,1,0-59.734,59.734,8.533,8.533,0,1,1,0,17.066H99.016a8.533,8.533,0,1,1,0-17.066H318.739A76.8,76.8,0,1,1,443.763,76.847c0,29.254-9.762,57.4-30.719,88.594a8.572,8.572,0,0,1-4.27,3.309C312.7,202.031,268.368,284.121,250.056,332.1c7.348-6.937,16.469-14.906,27.691-23.723a8.534,8.534,0,0,1,12.672,10.965,177.861,177.861,0,0,0-25.855,90.3c0,55.422,48.355,85.332,93.867,85.332a8.533,8.533,0,0,1,0,17.066Zm0,0" fill="#c4d5d6"/>
  </g>
</svg>
